# xmcd CD database file
#
# Track frame offsets:
#	150
#	13447
#	26683
#	31220
#	43290
#	51592
#	63835
#	71070
#	84368
#	97661
#	108460
#	115197
#	128282
#	139687
#	146643
#	159897
#	167674
#	177867
#	189538
#	194710
#	208324
#	221915
#	227258
#	237328
#	249136
#	253809
#	258566
#	263300
#	267961
#	272713
#	277463
#	282325
#	287024
#	291808
#	296532
#	301312
#	306010
#	310748
#	313229
#	315732
#	318215
#	320700
#	323113
#	325592
#	328082
#	330567
#	333104
#	335628
#	338166
#	340700
#
# Disc length: 4575 seconds
#
# Revision: 0
# Processed by: cddbd v1.5.1PL0 Copyright (c) Steve Scherf et al.
# Submitted via: CDex 1.51
#
DISCID=fd11dd32
DTITLE=Sonoton Authentic Series - SAS 215 - Authentic Spain - Today
DYEAR=2002
DGENRE=Contentum
TTITLE0=Bandolero de ojos negros 1
TTITLE1=Bandolero de ojos negros 2
TTITLE2=Bandolero de ojos negros 3
TTITLE3=Juerga gitana 1
TTITLE4=Juerga gitana 2
TTITLE5=Saborcito a sur 1
TTITLE6=Saborcito a sur 2
TTITLE7=La pasion y el amor 1
TTITLE8=La pasion y el amor 2
TTITLE9=La danza del agua 1
TTITLE10=La danza del agua 2
TTITLE11=Tablao total
TTITLE12=Guitarras frente al mar 1
TTITLE13=Guitarras frente al mar 2
TTITLE14=Misterio en la noche 1
TTITLE15=Misterio en la noche 2
TTITLE16=Marcha sobre Sevilla
TTITLE17=El sendero de Piedras 1
TTITLE18=El sendero de Piedras 2
TTITLE19=Vuelvo a Caminar 1
TTITLE20=Vuelvo a Caminar 2
TTITLE21=Vuelvo a Caminar 3
TTITLE22=Tormenta Salvaje
TTITLE23=Cautivos in the dark
TTITLE24=59 second versions - Bandolero De Ojos Negros
TTITLE25=59 second versions - Juerga Gitana
TTITLE26=59 second versions - Saborcito a Sur
TTITLE27=59 second versions - La Pasion Y El Amor
TTITLE28=59 second versions - La Danza Del Agua
TTITLE29=59 second versions - Tablao Total
TTITLE30=59 second versions - Guitarras Frente Al Mar
TTITLE31=59 second versions - Misterio En La Noche
TTITLE32=59 second versions - Marcha Sobre Sevilla
TTITLE33=59 second versions - El Sendero De Piedras
TTITLE34=59 second versions - Vuelvo A Caminar
TTITLE35=59 second versions - Tormento Salvaje
TTITLE36=59 second versions - Cautivos In The Dark
TTITLE37=29 second versions - Bandolero De Ojos Negros
TTITLE38=29 second versions - Juerga Gitana
TTITLE39=29 second versions - Saborcito a Sur
TTITLE40=29 second versions - La Pasion Y El Amor
TTITLE41=29 second versions - La Danza Del Agua
TTITLE42=29 second versions - Tablao Total
TTITLE43=29 second versions - Guitarras Frente Al Mar
TTITLE44=29 second versions - Misterio En La Noche
TTITLE45=29 second versions - Marcha Sobre Sevilla
TTITLE46=29 second versions - El Sendero De Piedras
TTITLE47=29 second versions - Vuelvo A Caminar
TTITLE48=29 second versions - Tormento Salvaje
TTITLE49=29 second versions - Cautivos In The Dark
EXTD=YEAR: 2002
EXTT0=
EXTT1=
EXTT2=
EXTT3=
EXTT4=
EXTT5=
EXTT6=
EXTT7=
EXTT8=
EXTT9=
EXTT10=
EXTT11=
EXTT12=
EXTT13=
EXTT14=
EXTT15=
EXTT16=
EXTT17=
EXTT18=
EXTT19=
EXTT20=
EXTT21=
EXTT22=
EXTT23=
EXTT24=
EXTT25=
EXTT26=
EXTT27=
EXTT28=
EXTT29=
EXTT30=
EXTT31=
EXTT32=
EXTT33=
EXTT34=
EXTT35=
EXTT36=
EXTT37=
EXTT38=
EXTT39=
EXTT40=
EXTT41=
EXTT42=
EXTT43=
EXTT44=
EXTT45=
EXTT46=
EXTT47=
EXTT48=
EXTT49=
PLAYORDER=
